<?xml version="1.0" encoding="iso-8859-1"?>
<!-- Generator: Adobe Illustrator 21.0.2, SVG Export Plug-In . SVG Version: 6.00 Build 0)  -->
<svg xmlns="http://www.w3.org/2000/svg" xmlns:xlink="http://www.w3.org/1999/xlink" version="1.1" id="Layer_1" x="0px" y="0px" viewBox="0 0 48 48" style="enable-background:new 0 0 48 48;" xml:space="preserve">
<g>
	<g>
		<path style="fill:#689F38;" d="M34,23c-1.7,0-3-1.3-3-3s1.3-3,3-3c2.8,0,3-1,3-1.7c0-0.5-0.4-1.3-2-1.3c-1.7,0-2.9,1.1-3,1.2    c-1.2,1.2-3.1,1.1-4.2-0.1s-1.1-3.1,0.1-4.2C28.2,10.5,31,8,35,8c5,0,8,3.6,8,7C43,19.9,39.5,23,34,23z"/>
	</g>
</g>
<g>
	<path style="fill:#689F38;" d="M34,17c-1.7,0-3,1.3-3,3s1.3,3,3,3c3.7,0,4,1.1,4,1.5s0,1.5-3,1.5c-2.2,0-3.7-0.6-3.8-0.7   c-1.5-0.7-3.3,0-3.9,1.5c-0.7,1.5,0,3.3,1.5,4C29.1,31,31.5,32,35,32c6.6,0,9-4,9-7.5C44,22.2,43,17,34,17z"/>
</g>
<g>
	<path style="fill:#FFC107;" d="M29,41H16c-1.7,0-3-1.3-3-3l0,0c0-1.7,1.3-3,3-3h13c1.7,0,3,1.3,3,3l0,0C32,39.7,30.7,41,29,41z"/>
</g>
<g>
	<g>
		<path style="fill:#FF3D00;" d="M11.5,30L11.5,30C9.6,30,8,28.4,8,26.5v-16C8,8.6,9.6,7,11.5,7l0,0c1.9,0,3.5,1.6,3.5,3.5v16    C15,28.4,13.4,30,11.5,30z"/>
	</g>
	<g>
		<path style="fill:#FF3D00;" d="M10,7.3L5.4,9.8C4.5,10.2,4,11.2,4,12.2l0,0C4,13.8,5.1,15,6.4,15h3.5L10,7.3z"/>
	</g>
	<g>
		<path style="fill:#FF3D00;" d="M16,30H7c-1.7,0-3-1.3-3-3l0,0c0-1.7,1.3-3,3-3h9c1.7,0,3,1.3,3,3l0,0C19,28.7,17.7,30,16,30z"/>
	</g>
</g>
<g>
	<path style="fill:#FFC107;" d="M16.001,41c-0.858,0-1.71-0.366-2.304-1.077c-1.063-1.271-0.893-3.163,0.379-4.226   c2.431-2.03,4.466-3.567,6.101-4.803C24.504,27.624,25,27.069,25,25.5c0-0.417-0.145-2.5-3-2.5c-2.277,0-4.153,1.364-4.171,1.378   c-1.313,1.009-3.197,0.766-4.207-0.549c-1.01-1.313-0.765-3.197,0.549-4.207C14.52,19.354,17.704,17,22,17c5.846,0,9,4.379,9,8.5   c0,4.736-2.712,6.785-7.206,10.181c-1.583,1.196-3.553,2.686-5.871,4.622C17.362,40.771,16.68,41,16.001,41z"/>
</g>
</svg>
