<?xml version="1.0"?>
<svg xmlns="http://www.w3.org/2000/svg" id="Layer_1" data-name="Layer 1" viewBox="0 0 64 64"><title>Icons8 RSL Colored Part 9</title><path d="M15,3H49a2,2,0,0,1,2,2V53a6,6,0,0,1-6,6H15a2,2,0,0,1-2-2V5A2,2,0,0,1,15,3Z" style="fill:#ffeb9b;"/><path d="M45,9H20a1,1,0,0,0-1,1V30a1,1,0,0,0,1,1H41a4,4,0,0,0,4-4Z" style="fill:#bbdef9;"/><path d="M45,16.39,30.39,31H41a4,4,0,0,0,4-4Z" style="fill:#def0ff;"/><polygon points="45 9 42 9 20 31 20 31 26 31 45 12 45 9" style="fill:#def0ff;"/><polygon points="36 9 19 26 19 29 39 9 36 9" style="fill:#def0ff;"/><polygon points="38.42 15 39.27 16.56 40.84 17.42 39.27 18.27 38.42 19.84 37.56 18.27 36 17.42 37.56 16.56 38.42 15" style="fill:#fff;"/><path d="M27,39V36a1,1,0,0,0-1-1H24a1,1,0,0,0-1,1v3H20a1,1,0,0,0-1,1v2a1,1,0,0,0,1,1h3v3a1,1,0,0,0,1,1h2a1,1,0,0,0,1-1V43h3a1,1,0,0,0,1-1V40a1,1,0,0,0-1-1Z" style="fill:#ed7899;"/><circle cx="42.5" cy="38.5" r="3.5" style="fill:#85cbf8;"/><circle cx="37" cy="46" r="2" style="fill:#97e0bb;"/><path d="M17,52H51a0,0,0,0,1,0,0v0a7,7,0,0,1-7,7H13a0,0,0,0,1,0,0V56a4,4,0,0,1,4-4Z" style="fill:#f6d397;"/><path d="M19,32H41a5,5,0,0,0,5-5V9a1,1,0,0,0-1-1H19a1,1,0,0,0-1,1V31A1,1,0,0,0,19,32Zm1-22H44V27a3,3,0,0,1-3,3H20Z" style="fill:#8d6c9f;"/><path d="M20,44h2v2a2,2,0,0,0,2,2h2a2,2,0,0,0,2-2V44h2a2,2,0,0,0,2-2V40a2,2,0,0,0-2-2H28V36a2,2,0,0,0-2-2H24a2,2,0,0,0-2,2v2H20a2,2,0,0,0-2,2v2A2,2,0,0,0,20,44Zm0-4h3a1,1,0,0,0,1-1V36h2v3a1,1,0,0,0,1,1h3v2H27a1,1,0,0,0-1,1v3H24V43a1,1,0,0,0-1-1H20Z" style="fill:#8d6c9f;"/><path d="M49,2H15a3,3,0,0,0-3,3V57a3,3,0,0,0,3,3H45a7,7,0,0,0,7-7V5A3,3,0,0,0,49,2Zm1,51a5,5,0,0,1-5,5H15a1,1,0,0,1-1-1V5a1,1,0,0,1,1-1H49a1,1,0,0,1,1,1Z" style="fill:#8d6c9f;"/><path d="M24,18a1,1,0,0,0-1,1v2a1,1,0,0,0,2,0V19A1,1,0,0,0,24,18Z" style="fill:#8d6c9f;"/><path d="M29,18a1,1,0,0,0-1,1v2a1,1,0,0,0,2,0V19A1,1,0,0,0,29,18Z" style="fill:#8d6c9f;"/><path d="M34,18a1,1,0,0,0-1,1v2a1,1,0,0,0,2,0V19A1,1,0,0,0,34,18Z" style="fill:#8d6c9f;"/><path d="M39,18a1,1,0,0,0-1,1v2a1,1,0,0,0,2,0V19A1,1,0,0,0,39,18Z" style="fill:#8d6c9f;"/><path d="M42.5,34A4.5,4.5,0,1,0,47,38.5,4.5,4.5,0,0,0,42.5,34Zm0,7A2.5,2.5,0,1,1,45,38.5,2.5,2.5,0,0,1,42.5,41Z" style="fill:#8d6c9f;"/><path d="M37,43a3,3,0,1,0,3,3A3,3,0,0,0,37,43Zm0,4a1,1,0,1,1,1-1A1,1,0,0,1,37,47Z" style="fill:#8d6c9f;"/><path d="M38,54H17a1,1,0,0,0,0,2H38a1,1,0,0,0,0-2Z" style="fill:#8d6c9f;"/><path d="M46,54H42a1,1,0,0,0,0,2h4a1,1,0,0,0,0-2Z" style="fill:#8d6c9f;"/><polygon points="28.65 24 29.23 25.07 30.3 25.65 29.23 26.23 28.65 27.3 28.07 26.23 27 25.65 28.07 25.07 28.65 24" style="fill:#fff;"/><polygon points="28.5 11 29.74 13.26 32 14.5 29.74 15.74 28.5 18 27.26 15.74 25 14.5 27.26 13.26 28.5 11" style="fill:#fff;"/></svg>
