<?xml version="1.0" encoding="iso-8859-1"?>
<!-- Generator: Adobe Illustrator 19.1.1, SVG Export Plug-In . SVG Version: 6.00 Build 0)  -->
<svg version="1.1" id="Layer_1" xmlns="http://www.w3.org/2000/svg" xmlns:xlink="http://www.w3.org/1999/xlink" x="0px" y="0px"
	 viewBox="0 0 48 48" style="enable-background:new 0 0 48 48;" xml:space="preserve">
<path style="fill:#FF3D00;" d="M19.824,34.828L14.329,18.54C13.8,16.891,12.829,15,9.995,15c-2.899,0-3.881,2.025-4.364,3.536
	L0.203,34.82c-0.365,1.056-0.231,2.179,0.357,3.006C1.091,38.572,1.945,39,2.904,39c1.524,0,2.558-0.868,3.074-2.59L6.679,34h6.602
	l0.743,2.445C14.584,38.141,15.604,39,17.054,39c0.97,0,1.802-0.4,2.343-1.127C19.996,37.068,20.159,35.942,19.824,34.828z
	 M8.292,29l1.704-5.424L11.729,29H8.292z"/>
<path style="fill:#689F38;" d="M39.774,40C32.952,40,28,34.946,28,27.984C28,21.04,32.952,16,39.774,16
	c2.5,0,4.633,0.579,6.439,1.823C47.416,18.654,48,19.6,48,20.715c0,1.51-1.123,2.647-2.613,2.647c-1.014,0-1.761-0.457-2.361-0.825
	c-0.919-0.585-1.835-0.919-3.188-0.919c-3.493,0-5.839,2.559-5.839,6.366c0,3.826,2.347,6.397,5.839,6.397
	c1.474,0,2.256-0.311,3.184-0.884c0.581-0.377,1.327-0.86,2.333-0.86c1.483,0,2.645,1.177,2.645,2.68
	c0,1.128-0.599,2.076-1.832,2.899C44.504,39.379,42.287,40,39.774,40z"/>
<path style="fill:#FFC107;" d="M23.34,34h-5.311C16.274,34,15,32.751,15,31.03V12.937C15,11.235,16.274,10,18.029,10h4.77
	c7.369,0,8.916,3.848,8.916,7.075c0,1.665-0.626,3.149-1.792,4.308C31.897,22.587,33,24.433,33,26.624C33,31.519,29.75,34,23.34,34z
	 M21.059,28.495h2.586c2.981,0,3.228-0.948,3.228-2.005c0-0.58,0-1.938-3.262-1.938h-2.552V28.495z M21,19h2.011
	c2.302,0,2.678-0.959,2.678-2c0-1.021-0.285-2-3.016-2H21V19z"/>
</svg>
