<?xml version="1.0"?>
<svg xmlns="http://www.w3.org/2000/svg" id="Layer_1" data-name="Layer 1" viewBox="0 0 64 64"><title>Dusk Part 3</title><path d="M55,57V17a2,2,0,0,0-2-2H17a2,2,0,0,0-2,2V61a2,2,0,0,0,2,2H53V57Z" style="fill:#bbdef9;"/><path d="M47,45V5a2,2,0,0,0-2-2H14a2,2,0,0,0-2,2V49a2,2,0,0,0,2,2H45V45Z" style="fill:#faefde;"/><path d="M10,3h7a0,0,0,0,1,0,0V51a0,0,0,0,1,0,0H10a3,3,0,0,1-3-3V6A3,3,0,0,1,10,3Z" style="fill:#cda1a7;"/><rect x="7" y="45" width="38" height="6" rx="2" ry="2" style="fill:#efd8be;"/><rect x="15" y="57" width="38" height="6" rx="2" ry="2" style="fill:#9cc7e5;"/><path d="M24,22h6a1,1,0,0,0,0-2H24a1,1,0,0,0,0,2Z" style="fill:#8d6c9f;"/><path d="M34,22h4a1,1,0,0,0,0-2H34a1,1,0,0,0,0,2Z" style="fill:#8d6c9f;"/><path d="M34,24H28a1,1,0,0,0,0,2h6a1,1,0,0,0,0-2Z" style="fill:#8d6c9f;"/><path d="M17,12a1,1,0,0,0,1-1V7a1,1,0,0,0-2,0v4A1,1,0,0,0,17,12Z" style="fill:#8d6c9f;"/><path d="M53,14H48V5a3,3,0,0,0-3-3H10A4,4,0,0,0,6,6V48a4,4,0,0,0,4,4h4v8a4,4,0,0,0,4,4H51a3,3,0,0,0,3-3V57.82A3,3,0,0,0,56,55V17A3,3,0,0,0,53,14ZM8,6a2,2,0,0,1,2-2H45a1,1,0,0,1,1,1V43a1,1,0,0,1-1,1H18V15a1,1,0,0,0-2,0V44H10a3.94,3.94,0,0,0-2,.63ZM8,48a2.26,2.26,0,0,1,2-2H44v3a1,1,0,0,1-1,1H10A2,2,0,0,1,8,48ZM51,62H18a2,2,0,0,1-2-2,2.26,2.26,0,0,1,2-2H52v3A1,1,0,0,1,51,62Zm3-7a1,1,0,0,1-1,1H18a3.94,3.94,0,0,0-2,.63V52H43a3,3,0,0,0,3-3V45.82A3,3,0,0,0,48,43V16h5a1,1,0,0,1,1,1Z" style="fill:#8d6c9f;"/><path d="M11,7h2a1,1,0,0,0,0-2H11a1,1,0,0,0,0,2Z" style="fill:#8d6c9f;"/><path d="M11,12h2a1,1,0,0,0,0-2H11a1,1,0,0,0,0,2Z" style="fill:#8d6c9f;"/><path d="M11,17h2a1,1,0,0,0,0-2H11a1,1,0,0,0,0,2Z" style="fill:#8d6c9f;"/><path d="M11,22h2a1,1,0,0,0,0-2H11a1,1,0,0,0,0,2Z" style="fill:#8d6c9f;"/><path d="M11,27h2a1,1,0,0,0,0-2H11a1,1,0,0,0,0,2Z" style="fill:#8d6c9f;"/><path d="M11,32h2a1,1,0,0,0,0-2H11a1,1,0,0,0,0,2Z" style="fill:#8d6c9f;"/><path d="M11,37h2a1,1,0,0,0,0-2H11a1,1,0,0,0,0,2Z" style="fill:#8d6c9f;"/><path d="M11,42h2a1,1,0,0,0,0-2H11a1,1,0,0,0,0,2Z" style="fill:#8d6c9f;"/></svg>
